<svg width="272" height="36" viewBox="0 0 272 36" fill="none" xmlns="http://www.w3.org/2000/svg">
<path d="M13.9459 24.7351C15.2949 24.7351 16.5987 24.6479 17.8325 24.4858V10.962C16.5988 10.7999 15.2949 10.7128 13.9459 10.7128C6.24382 10.7128 0 13.5446 0 17.038V18.4097C0 21.903 6.24382 24.7351 13.9459 24.7351Z" fill="#66c2aa"/>
<path d="M13.9459 31.7967C15.2949 31.7967 16.5987 31.7095 17.8325 31.5476V27.5835C16.5985 27.7456 15.2952 27.8339 13.9459 27.8339C7.22283 27.8339 1.61139 25.6761 0.293307 22.8042C0.101355 23.2225 0 23.6557 0 24.0997V25.4715C0 28.9648 6.24382 31.7967 13.9459 31.7967Z" fill="#66c2aa"/>
<path d="M34.0541 0C26.352 0 20.1081 2.83183 20.1081 6.32522V7.69697C20.1081 11.1904 26.352 14.0222 34.0541 14.0222C41.7561 14.0222 48 11.1904 48 7.69697V6.32522C48 2.83183 41.7561 0 34.0541 0Z" fill="#66c2aa"/>
<path d="M34.0541 17.1211C27.331 17.1211 21.7195 14.9634 20.4014 12.0914C20.2095 12.5096 20.1081 12.9427 20.1081 13.3869V14.7586C20.1081 18.252 26.352 21.0838 34.0541 21.0838C41.7561 21.0838 48 18.252 48 14.7586V13.3869C48 12.9427 47.8986 12.5096 47.7067 12.0914C46.3886 14.9634 40.7772 17.1211 34.0541 17.1211Z" fill="#66c2aa"/>
<path d="M34.0541 24.183C27.331 24.183 21.7195 22.0251 20.4014 19.1533C20.2095 19.5715 20.1081 20.0046 20.1081 20.4488V21.8205C20.1081 25.314 26.352 28.1458 34.0541 28.1458C41.7561 28.1458 48 25.314 48 21.8205V20.4488C48 20.0046 47.8986 19.5715 47.7067 19.1533C46.3886 22.0253 40.7772 24.183 34.0541 24.183Z" fill="#66c2aa"/>
<path d="M34.0541 31.626C27.331 31.626 21.7195 29.4681 20.4014 26.5963C20.2095 27.0146 20.1081 27.4476 20.1081 27.8916V29.2635C20.1081 32.7569 26.352 35.5887 34.0541 35.5887C41.7561 35.5887 48 32.7569 48 29.2635V27.8916C48 27.4476 47.8986 27.0143 47.7067 26.5963C46.3886 29.468 40.7772 31.626 34.0541 31.626Z" fill="#66c2aa"/>
<path d="M65.517 26H77.3125V22.9574H69.2074V18.7898H76.6733V15.7472H69.2074V11.5881H77.2784V8.54545H65.517V26ZM83.1783 12.9091H79.4283L83.1783 19.4545L79.2919 26H83.0419L85.5817 21.4744L88.1641 26H91.8714L87.9766 19.4545L91.7692 12.9091H88.0447L85.5817 17.4858L83.1783 12.9091ZM93.9254 30.9091H97.5561V23.9034H97.6669C98.1697 24.9943 99.2692 26.2131 101.383 26.2131C104.366 26.2131 106.692 23.8523 106.692 19.4716C106.692 14.9716 104.263 12.7386 101.391 12.7386C99.201 12.7386 98.1527 14.0426 97.6669 15.108H97.505V12.9091H93.9254V30.9091ZM97.4794 19.4545C97.4794 17.1193 98.468 15.6278 100.232 15.6278C102.031 15.6278 102.985 17.1875 102.985 19.4545C102.985 21.7386 102.013 23.3239 100.232 23.3239C98.4851 23.3239 97.4794 21.7898 97.4794 19.4545ZM115.079 26.2557C118.317 26.2557 120.499 24.679 121.011 22.25L117.653 22.0284C117.286 23.0256 116.349 23.5455 115.138 23.5455C113.323 23.5455 112.173 22.3438 112.173 20.392V20.3835H121.087V19.3864C121.087 14.9375 118.394 12.7386 114.934 12.7386C111.082 12.7386 108.585 15.4744 108.585 19.5142C108.585 23.6648 111.048 26.2557 115.079 26.2557ZM112.173 18.1335C112.249 16.642 113.383 15.4489 114.994 15.4489C116.57 15.4489 117.661 16.5739 117.67 18.1335H112.173ZM127.087 18.4318C127.096 16.7443 128.102 15.7557 129.567 15.7557C131.025 15.7557 131.903 16.7102 131.894 18.3125V26H135.525V17.6648C135.525 14.6136 133.735 12.7386 131.008 12.7386C129.065 12.7386 127.658 13.6932 127.07 15.2188H126.917V12.9091H123.457V26H127.087V18.4318ZM149.278 16.642C148.955 14.2301 147.011 12.7386 143.705 12.7386C140.355 12.7386 138.148 14.2898 138.156 16.8125C138.148 18.7727 139.384 20.0426 141.94 20.554L144.207 21.0057C145.349 21.2358 145.869 21.6534 145.886 22.3097C145.869 23.0852 145.026 23.6392 143.756 23.6392C142.46 23.6392 141.599 23.0852 141.378 22.0199L137.807 22.2074C138.148 24.7131 140.278 26.2557 143.747 26.2557C147.139 26.2557 149.568 24.5256 149.577 21.9432C149.568 20.0511 148.332 18.9176 145.793 18.3977L143.423 17.9205C142.205 17.6562 141.753 17.2386 141.761 16.608C141.753 15.8239 142.639 15.3125 143.764 15.3125C145.026 15.3125 145.776 16.0028 145.955 16.8466L149.278 16.642ZM157.829 26.2557C161.067 26.2557 163.249 24.679 163.761 22.25L160.403 22.0284C160.036 23.0256 159.099 23.5455 157.888 23.5455C156.073 23.5455 154.923 22.3438 154.923 20.392V20.3835H163.837V19.3864C163.837 14.9375 161.144 12.7386 157.684 12.7386C153.832 12.7386 151.335 15.4744 151.335 19.5142C151.335 23.6648 153.798 26.2557 157.829 26.2557ZM154.923 18.1335C154.999 16.642 156.133 15.4489 157.744 15.4489C159.32 15.4489 160.411 16.5739 160.42 18.1335H154.923ZM173.621 8.54545V26H175.599V12.7386H175.769L181.224 26H183.133L188.587 12.7386H188.758V26H190.735V8.54545H188.212L182.281 23.0341H182.076L176.144 8.54545H173.621ZM198.553 26.3068C200.837 26.3068 202.03 25.0795 202.439 24.2273H202.541V26H204.553V17.375C204.553 13.2159 201.382 12.7386 199.712 12.7386C197.734 12.7386 195.484 13.4205 194.462 15.8068L196.371 16.4886C196.814 15.5341 197.862 14.5114 199.78 14.5114C201.629 14.5114 202.541 15.4915 202.541 17.1705V17.2386C202.541 18.2102 201.553 18.125 199.166 18.4318C196.737 18.7472 194.087 19.2841 194.087 22.2841C194.087 24.8409 196.064 26.3068 198.553 26.3068ZM198.859 24.5C197.257 24.5 196.098 23.7841 196.098 22.3864C196.098 20.8523 197.496 20.375 199.064 20.1705C199.916 20.0682 202.2 19.8295 202.541 19.4205V21.2614C202.541 22.8977 201.246 24.5 198.859 24.5ZM210.235 18.125C210.235 15.8409 211.65 14.5455 213.576 14.5455C215.442 14.5455 216.576 15.7642 216.576 17.8182V26H218.587V17.6818C218.587 14.3409 216.806 12.7386 214.156 12.7386C212.178 12.7386 210.951 13.625 210.337 14.9545H210.167V12.9091H208.224V26H210.235V18.125ZM226.115 26.3068C228.399 26.3068 229.592 25.0795 230.001 24.2273H230.104V26H232.115V17.375C232.115 13.2159 228.945 12.7386 227.274 12.7386C225.297 12.7386 223.047 13.4205 222.024 15.8068L223.933 16.4886C224.376 15.5341 225.425 14.5114 227.342 14.5114C229.192 14.5114 230.104 15.4915 230.104 17.1705V17.2386C230.104 18.2102 229.115 18.125 226.729 18.4318C224.3 18.7472 221.649 19.2841 221.649 22.2841C221.649 24.8409 223.626 26.3068 226.115 26.3068ZM226.422 24.5C224.82 24.5 223.661 23.7841 223.661 22.3864C223.661 20.8523 225.058 20.375 226.626 20.1705C227.479 20.0682 229.763 19.8295 230.104 19.4205V21.2614C230.104 22.8977 228.808 24.5 226.422 24.5ZM241.07 31.1818C244.207 31.1818 246.729 29.75 246.729 26.375V12.9091H244.786V14.9886H244.582C244.138 14.3068 243.32 12.7386 240.763 12.7386C237.457 12.7386 235.173 15.3636 235.173 19.3864C235.173 23.4773 237.559 25.7955 240.729 25.7955C243.286 25.7955 244.104 24.2955 244.548 23.5795H244.718V26.2386C244.718 28.4205 243.184 29.4091 241.07 29.4091C238.692 29.4091 237.857 28.1562 237.32 27.4318L235.718 28.5568C236.536 29.929 238.147 31.1818 241.07 31.1818ZM241.002 23.9886C238.479 23.9886 237.184 22.0795 237.184 19.3523C237.184 16.6932 238.445 14.5455 241.002 14.5455C243.457 14.5455 244.752 16.5227 244.752 19.3523C244.752 22.25 243.423 23.9886 241.002 23.9886ZM255.9 26.2727C258.559 26.2727 260.502 24.9432 261.116 22.9659L259.173 22.4205C258.661 23.7841 257.477 24.4659 255.9 24.4659C253.539 24.4659 251.911 22.9403 251.817 20.1364H261.32V19.2841C261.32 14.4091 258.423 12.7386 255.695 12.7386C252.15 12.7386 249.798 15.5341 249.798 19.5568C249.798 23.5795 252.116 26.2727 255.9 26.2727ZM251.817 18.3977C251.954 16.3608 253.394 14.5455 255.695 14.5455C257.877 14.5455 259.275 16.1818 259.275 18.3977H251.817ZM264.38 26H266.391V17.7159C266.391 15.9432 267.789 14.6477 269.698 14.6477C270.235 14.6477 270.789 14.75 270.925 14.7841V12.7386C270.695 12.7216 270.167 12.7045 269.869 12.7045C268.3 12.7045 266.937 13.5909 266.46 14.8864H266.323V12.9091H264.38V26Z" fill="#66c2aa"/>
</svg>
