<svg width="100" height="88" viewBox="0 0 100 88" fill="none" xmlns="http://www.w3.org/2000/svg">
<path opacity="0.3" d="M58.1015 14.5026C51.6906 14.2096 45.5848 11.4888 39.7535 8.51152C33.9221 5.5342 28.1482 2.23519 21.8909 0.664486C17.8662 -0.350093 13.2641 -0.493358 10.0211 2.34329C6.90084 5.07836 5.89246 9.78658 5.34964 14.1588C4.94252 17.45 4.70182 20.9118 5.82015 23.992C6.59575 26.1305 7.97361 27.9279 8.92652 29.9766C12.2409 37.1034 9.89825 45.892 6.30552 52.8508C4.62158 56.1147 2.66623 59.2326 1.36564 62.7049C0.0650437 66.1771 -0.536221 70.1612 0.600932 73.7063C1.72917 77.2229 4.41654 79.8589 7.32678 81.7149C13.2394 85.484 20.2039 86.5637 27.0011 87.1746C42.0397 88.5278 57.1594 87.9417 72.2376 87.3556C77.8184 87.1381 83.4229 86.918 88.9126 85.7836C91.9615 85.1532 95.1094 84.153 97.3223 81.7461C100.132 78.6815 100.828 73.4914 98.9459 69.6493C95.788 63.2037 87.0592 61.6017 84.8493 54.6846C83.6339 50.8777 84.882 46.6357 86.6472 43.1049C90.435 35.5287 96.7835 28.8838 97.1183 20.2241C97.3481 14.2773 94.2962 8.32136 89.5772 5.50685C84.6304 2.55689 77.7718 2.92808 74.1246 7.81082C70.3645 12.8264 63.7615 14.7605 58.1015 14.5026Z" fill="#64C2AC"/>
</svg>
