<svg width="195" height="36" viewBox="0 0 195 36" fill="none" xmlns="http://www.w3.org/2000/svg">
<path d="M13.9459 24.7351C15.2949 24.7351 16.5987 24.6479 17.8325 24.4858V10.962C16.5988 10.7999 15.2949 10.7128 13.9459 10.7128C6.24382 10.7128 0 13.5446 0 17.038V18.4097C0 21.903 6.24382 24.7351 13.9459 24.7351Z" fill="url(#paint0_linear)"/>
<path d="M13.9459 31.7967C15.2949 31.7967 16.5987 31.7095 17.8325 31.5476V27.5835C16.5985 27.7456 15.2952 27.8339 13.9459 27.8339C7.22283 27.8339 1.61139 25.6761 0.293307 22.8042C0.101355 23.2225 0 23.6557 0 24.0997V25.4715C0 28.9648 6.24382 31.7967 13.9459 31.7967Z" fill="url(#paint1_linear)"/>
<path d="M34.0541 0C26.352 0 20.1081 2.83183 20.1081 6.32522V7.69697C20.1081 11.1904 26.352 14.0222 34.0541 14.0222C41.7561 14.0222 48 11.1904 48 7.69697V6.32522C48 2.83183 41.7561 0 34.0541 0Z" fill="url(#paint2_linear)"/>
<path d="M34.0541 17.1211C27.331 17.1211 21.7195 14.9634 20.4014 12.0914C20.2095 12.5096 20.1081 12.9427 20.1081 13.3869V14.7586C20.1081 18.252 26.352 21.0838 34.0541 21.0838C41.7561 21.0838 48 18.252 48 14.7586V13.3869C48 12.9427 47.8986 12.5096 47.7067 12.0914C46.3886 14.9634 40.7772 17.1211 34.0541 17.1211Z" fill="url(#paint3_linear)"/>
<path d="M34.0541 24.183C27.331 24.183 21.7195 22.0251 20.4014 19.1533C20.2095 19.5715 20.1081 20.0046 20.1081 20.4488V21.8205C20.1081 25.314 26.352 28.1458 34.0541 28.1458C41.7561 28.1458 48 25.314 48 21.8205V20.4488C48 20.0046 47.8986 19.5715 47.7067 19.1533C46.3886 22.0253 40.7772 24.183 34.0541 24.183Z" fill="url(#paint4_linear)"/>
<path d="M34.0541 31.626C27.331 31.626 21.7195 29.4681 20.4014 26.5963C20.2095 27.0146 20.1081 27.4476 20.1081 27.8916V29.2635C20.1081 32.7569 26.352 35.5887 34.0541 35.5887C41.7561 35.5887 48 32.7569 48 29.2635V27.8916C48 27.4476 47.8986 27.0143 47.7067 26.5963C46.3886 29.468 40.7772 31.626 34.0541 31.626Z" fill="url(#paint5_linear)"/>
<path d="M74.9858 13.5653H78.5227C78.4716 10.4545 75.9148 8.30682 72.0284 8.30682C68.2017 8.30682 65.3977 10.4205 65.4148 13.5909C65.4062 16.1648 67.2216 17.6392 70.1705 18.3466L72.071 18.8239C73.9716 19.2841 75.0284 19.8295 75.0369 21.0057C75.0284 22.2841 73.8182 23.1534 71.9432 23.1534C70.0256 23.1534 68.6449 22.267 68.5256 20.5199H64.9545C65.0483 24.2955 67.75 26.2472 71.9858 26.2472C76.2472 26.2472 78.7528 24.2102 78.7614 21.0142C78.7528 18.108 76.5625 16.5653 73.5284 15.8835L71.9602 15.5085C70.4432 15.1591 69.1733 14.5966 69.1989 13.3438C69.1989 12.2188 70.196 11.392 72.0028 11.392C73.767 11.392 74.8494 12.1932 74.9858 13.5653ZM81.1754 30.9091H84.8061V23.9034H84.9169C85.4197 24.9943 86.5192 26.2131 88.6328 26.2131C91.6158 26.2131 93.9425 23.8523 93.9425 19.4716C93.9425 14.9716 91.5135 12.7386 88.6413 12.7386C86.451 12.7386 85.4027 14.0426 84.9169 15.108H84.755V12.9091H81.1754V30.9091ZM84.7294 19.4545C84.7294 17.1193 85.718 15.6278 87.4822 15.6278C89.2805 15.6278 90.2351 17.1875 90.2351 19.4545C90.2351 21.7386 89.2635 23.3239 87.4822 23.3239C85.7351 23.3239 84.7294 21.7898 84.7294 19.4545ZM102.329 26.2557C105.567 26.2557 107.749 24.679 108.261 22.25L104.903 22.0284C104.536 23.0256 103.599 23.5455 102.388 23.5455C100.573 23.5455 99.4226 22.3438 99.4226 20.392V20.3835H108.337V19.3864C108.337 14.9375 105.644 12.7386 102.184 12.7386C98.3317 12.7386 95.8345 15.4744 95.8345 19.5142C95.8345 23.6648 98.2976 26.2557 102.329 26.2557ZM99.4226 18.1335C99.4993 16.642 100.633 15.4489 102.244 15.4489C103.82 15.4489 104.911 16.5739 104.92 18.1335H99.4226ZM114.337 18.4318C114.346 16.7443 115.352 15.7557 116.817 15.7557C118.275 15.7557 119.153 16.7102 119.144 18.3125V26H122.775V17.6648C122.775 14.6136 120.985 12.7386 118.258 12.7386C116.315 12.7386 114.908 13.6932 114.32 15.2188H114.167V12.9091H110.707V26H114.337V18.4318ZM130.46 26.2131C132.574 26.2131 133.673 24.9943 134.176 23.9034H134.33V26H137.909V8.54545H134.287V15.108H134.176C133.69 14.0426 132.642 12.7386 130.452 12.7386C127.58 12.7386 125.151 14.9716 125.151 19.4716C125.151 23.8523 127.477 26.2131 130.46 26.2131ZM131.611 23.3239C129.83 23.3239 128.858 21.7386 128.858 19.4545C128.858 17.1875 129.812 15.6278 131.611 15.6278C133.375 15.6278 134.364 17.1193 134.364 19.4545C134.364 21.7898 133.358 23.3239 131.611 23.3239ZM141.559 26H151.786V24.125H143.673V8.54545H141.559V26ZM160.104 26.2727C163.65 26.2727 166.036 23.5795 166.036 19.5227C166.036 15.4318 163.65 12.7386 160.104 12.7386C156.559 12.7386 154.173 15.4318 154.173 19.5227C154.173 23.5795 156.559 26.2727 160.104 26.2727ZM160.104 24.4659C157.411 24.4659 156.184 22.1477 156.184 19.5227C156.184 16.8977 157.411 14.5455 160.104 14.5455C162.798 14.5455 164.025 16.8977 164.025 19.5227C164.025 22.1477 162.798 24.4659 160.104 24.4659ZM174.391 31.1818C177.527 31.1818 180.05 29.75 180.05 26.375V12.9091H178.107V14.9886H177.902C177.459 14.3068 176.641 12.7386 174.084 12.7386C170.777 12.7386 168.493 15.3636 168.493 19.3864C168.493 23.4773 170.879 25.7955 174.05 25.7955C176.607 25.7955 177.425 24.2955 177.868 23.5795H178.038V26.2386C178.038 28.4205 176.504 29.4091 174.391 29.4091C172.013 29.4091 171.178 28.1562 170.641 27.4318L169.038 28.5568C169.857 29.929 171.467 31.1818 174.391 31.1818ZM174.322 23.9886C171.8 23.9886 170.504 22.0795 170.504 19.3523C170.504 16.6932 171.766 14.5455 174.322 14.5455C176.777 14.5455 178.072 16.5227 178.072 19.3523C178.072 22.25 176.743 23.9886 174.322 23.9886ZM193.004 15.8409C192.374 13.983 190.959 12.7386 188.368 12.7386C185.607 12.7386 183.561 14.3068 183.561 16.5227C183.561 18.3295 184.635 19.5398 187.038 20.1023L189.22 20.6136C190.541 20.9205 191.163 21.5511 191.163 22.4545C191.163 23.5795 189.97 24.5 188.095 24.5C186.45 24.5 185.419 23.7926 185.061 22.3864L183.152 22.8636C183.621 25.0881 185.453 26.2727 188.129 26.2727C191.172 26.2727 193.243 24.6108 193.243 22.3523C193.243 20.5284 192.101 19.3778 189.766 18.8068L187.822 18.3295C186.271 17.946 185.572 17.4261 185.572 16.4205C185.572 15.2955 186.766 14.4773 188.368 14.4773C190.124 14.4773 190.848 15.4489 191.197 16.3523L193.004 15.8409Z" fill="url(#paint6_linear)"/>
<defs>
<linearGradient id="paint0_linear" x1="8.91627" y1="10.7128" x2="8.91627" y2="24.7351" gradientUnits="userSpaceOnUse">
<stop stop-color="#64C2AC"/>
<stop offset="1" stop-color="#A0DD9D"/>
</linearGradient>
<linearGradient id="paint1_linear" x1="8.91627" y1="22.8042" x2="8.91627" y2="31.7967" gradientUnits="userSpaceOnUse">
<stop stop-color="#64C2AC"/>
<stop offset="1" stop-color="#A0DD9D"/>
</linearGradient>
<linearGradient id="paint2_linear" x1="34.0541" y1="0" x2="34.0541" y2="14.0222" gradientUnits="userSpaceOnUse">
<stop stop-color="#64C2AC"/>
<stop offset="1" stop-color="#A0DD9D"/>
</linearGradient>
<linearGradient id="paint3_linear" x1="34.0541" y1="12.0914" x2="34.0541" y2="21.0838" gradientUnits="userSpaceOnUse">
<stop stop-color="#64C2AC"/>
<stop offset="1" stop-color="#A0DD9D"/>
</linearGradient>
<linearGradient id="paint4_linear" x1="34.0541" y1="19.1533" x2="34.0541" y2="28.1458" gradientUnits="userSpaceOnUse">
<stop stop-color="#64C2AC"/>
<stop offset="1" stop-color="#A0DD9D"/>
</linearGradient>
<linearGradient id="paint5_linear" x1="34.0541" y1="26.5963" x2="34.0541" y2="35.5887" gradientUnits="userSpaceOnUse">
<stop stop-color="#64C2AC"/>
<stop offset="1" stop-color="#A0DD9D"/>
</linearGradient>
<linearGradient id="paint6_linear" x1="129.5" y1="3" x2="129.5" y2="32" gradientUnits="userSpaceOnUse">
<stop stop-color="#64C2AC"/>
<stop offset="1" stop-color="#A0DD9D"/>
</linearGradient>
</defs>
</svg>
